<?xml version="1.0" standalone="no"?>
<!DOCTYPE svg PUBLIC "-//W3C//DTD SVG 20010904//EN"
 "http://www.w3.org/TR/2001/REC-SVG-20010904/DTD/svg10.dtd">
<svg version="1.0" xmlns="http://www.w3.org/2000/svg"
 width="700.000000pt" height="700.000000pt" viewBox="0 0 700.000000 700.000000"
 preserveAspectRatio="xMidYMid meet">
<metadata>
Created by potrace 1.11, written by Peter Selinger 2001-2013
</metadata>
<g transform="translate(0.000000,700.000000) scale(0.100000,-0.100000)"
fill="#000000" stroke="none">
<path d="M2613 6229 c-97 -26 -173 -60 -247 -113 -300 -215 -430 -622 -321
-1001 41 -140 128 -279 271 -430 67 -72 194 -210 227 -248 10 -12 42 -47 70
-77 29 -30 74 -80 101 -110 27 -30 72 -80 100 -110 40 -43 163 -178 251 -276
6 -6 47 -51 92 -100 45 -49 91 -100 103 -114 112 -130 178 -180 236 -180 72 0
103 21 217 144 61 67 116 126 122 132 5 6 46 51 90 99 44 49 91 100 103 114
13 14 61 66 105 116 45 49 107 117 138 150 30 33 75 82 100 109 24 27 49 54
54 60 6 6 39 43 74 81 139 152 247 269 263 286 33 35 116 155 140 204 68 135
99 284 93 450 -4 139 -8 163 -42 265 -75 227 -223 402 -421 499 -100 50 -166
64 -302 67 -108 2 -137 -1 -210 -22 -184 -54 -296 -129 -461 -312 l-55 -61
-88 94 c-79 86 -190 180 -226 193 -8 3 -22 11 -30 17 -26 21 -145 64 -222 80
-95 20 -234 18 -325 -6z"/>
<path d="M412 5540 c-102 -33 -181 -111 -217 -215 -17 -47 -18 -130 -19 -1294
-1 -946 2 -1258 11 -1303 18 -90 60 -170 159 -303 50 -66 101 -136 114 -155
13 -19 27 -37 30 -40 3 -3 161 -214 350 -470 190 -256 380 -512 423 -570 42
-58 85 -114 94 -124 30 -37 92 -161 108 -221 10 -33 28 -75 42 -93 49 -65 20
-63 827 -60 l731 3 33 24 c17 14 41 44 53 67 20 42 20 53 16 766 -3 695 -4
727 -25 815 -56 242 -130 397 -315 653 -73 102 -222 310 -332 464 -110 153
-215 293 -235 312 -107 105 -283 117 -410 29 -85 -59 -141 -172 -142 -286 -1
-110 14 -139 176 -364 8 -11 69 -96 136 -190 66 -93 126 -177 133 -186 48 -62
60 -129 33 -194 -21 -50 -190 -222 -232 -235 -40 -14 -88 -9 -129 13 -18 9
-121 130 -250 292 -121 152 -227 285 -235 295 -8 10 -27 33 -42 51 -70 89
-290 366 -301 379 -7 8 -39 49 -72 90 -33 41 -66 81 -72 88 -10 11 -13 193
-13 841 0 877 -1 893 -47 968 -84 138 -238 199 -381 153z"/>
<path d="M6427 5548 c-112 -24 -206 -115 -247 -243 -11 -32 -14 -215 -14 -875
l-1 -836 -175 -219 c-96 -121 -179 -225 -185 -231 -5 -6 -23 -29 -40 -50 -16
-21 -59 -75 -95 -120 -36 -45 -78 -98 -95 -119 -16 -21 -35 -43 -41 -49 -6 -6
-24 -29 -40 -51 -16 -22 -37 -49 -46 -60 -9 -11 -56 -69 -104 -130 -115 -145
-142 -174 -184 -191 -37 -16 -95 -13 -132 7 -42 23 -205 200 -214 233 -10 41
-10 81 -1 111 8 25 69 121 100 160 22 27 273 378 312 437 70 105 89 201 60
311 -64 246 -367 336 -541 160 -34 -34 -569 -771 -681 -938 -108 -161 -193
-401 -219 -620 -4 -33 -8 -357 -9 -720 -1 -703 0 -722 47 -772 49 -54 31 -53
810 -53 662 1 726 2 755 18 46 25 67 57 98 149 15 45 41 106 59 135 25 42 397
550 490 670 12 15 35 46 52 70 29 39 266 360 506 683 54 72 108 153 122 180
59 116 57 57 54 1441 l-3 1269 -28 55 c-32 63 -57 94 -108 132 -68 52 -174 75
-262 56z"/>
</g>
</svg>
